<?xml version="1.0" encoding="UTF-8" standalone="no"?>
<!-- Created with Inkscape (http://www.inkscape.org/) -->

<svg
   xmlns:dc="http://purl.org/dc/elements/1.1/"
   xmlns:cc="http://creativecommons.org/ns#"
   xmlns:rdf="http://www.w3.org/1999/02/22-rdf-syntax-ns#"
   xmlns:svg="http://www.w3.org/2000/svg"
   xmlns="http://www.w3.org/2000/svg"
   xmlns:sodipodi="http://sodipodi.sourceforge.net/DTD/sodipodi-0.dtd"
   xmlns:inkscape="http://www.inkscape.org/namespaces/inkscape"
   width="230mm"
   height="230mm"
   viewBox="0 0 230 230"
   version="1.1"
   id="svg302"
   inkscape:version="0.92.3 (2405546, 2018-03-11)"
   sodipodi:docname="logo.svg">
  <defs
     id="defs296" />
  <sodipodi:namedview
     id="base"
     pagecolor="#ffffff"
     bordercolor="#666666"
     borderopacity="1.0"
     inkscape:pageopacity="0.0"
     inkscape:pageshadow="2"
     inkscape:zoom="0.35"
     inkscape:cx="34.285714"
     inkscape:cy="560"
     inkscape:document-units="mm"
     inkscape:current-layer="layer1"
     showgrid="false"
     inkscape:window-width="1920"
     inkscape:window-height="1017"
     inkscape:window-x="-8"
     inkscape:window-y="-8"
     inkscape:window-maximized="1" />
  <metadata
     id="metadata299">
    <rdf:RDF>
      <cc:Work
         rdf:about="">
        <dc:format>image/svg+xml</dc:format>
        <dc:type
           rdf:resource="http://purl.org/dc/dcmitype/StillImage" />
        <dc:title></dc:title>
      </cc:Work>
    </rdf:RDF>
  </metadata>
  <g
     inkscape:label="Capa 1"
     inkscape:groupmode="layer"
     id="layer1"
     transform="translate(0,-67)">
    <g
       id="g7985"
       transform="matrix(3.1869147,0,0,3.1869147,-186.02401,-687.90607)"
       inkscape:export-xdpi="96"
       inkscape:export-ydpi="96">
      <g
         id="g7972">
        <path
           sodipodi:nodetypes="scscs"
           inkscape:connector-curvature="0"
           id="path6627-4-31"
           d="m 109.55273,258.69695 c 0,0.86285 -0.69947,1.56233 -1.56232,1.56233 -0.86285,0 -1.56233,-0.69948 -1.56233,-1.56233 0,-0.86285 0.69948,-1.56233 1.56233,-1.56233 0.86285,0 1.56232,0.69948 1.56232,1.56233 z"
           style="fill:#2f5e8d;fill-opacity:1;stroke:none;stroke-width:0.22471093;stroke-miterlimit:4;stroke-dasharray:none;stroke-opacity:1" />
        <path
           style="fill:#2f5e8d;fill-opacity:1;stroke:none;stroke-width:78.78126526;stroke-miterlimit:4;stroke-dasharray:none;stroke-opacity:1"
           d="m 90.80554,258.70212 c -4.64491,0 -6.90536,3.04013 -6.90551,6.09782 -1.6e-4,3.05769 1.35247,6.32933 6.70708,6.32933 4.18065,0 5.00583,-1.1139 5.850811,-2.11047 0.84378,0.99556 1.672609,2.10633 5.847689,2.10633 5.33871,0 6.69763,-3.25211 6.70554,-6.30194 v -1.06713 c 0,-0.48711 -0.11234,-1.02319 -1.02319,-1.02319 -0.91091,0 -0.96481,0.50677 -0.96481,0.92552 v 1.16479 c 0.0629,3.00394 -2.50214,4.39766 -4.71651,4.39766 -2.16612,0 -4.890221,-1.11161 -5.055501,-4.18631 2.1e-5,-0.12562 0,-0.10533 0,-0.25941 l 0.0011,-2.11047 c 0.0011,-1.33274 -3.148518,-3.96255 -6.446629,-3.96255 z m -0.16639,2.03657 c 1.400811,0 4.81568,0.75015 5.021391,3.73155 v 0.60152 c -0.182721,3.04995 -2.896021,4.15323 -5.054471,4.15323 -2.22154,0 -4.79882,-1.40087 -4.71857,-4.42505 0.0803,-3.02418 3.30046,-4.06125 4.75165,-4.06125 z"
           id="path6183-5-3-2-9-3-2-5"
           inkscape:connector-curvature="0"
           sodipodi:nodetypes="ccscscssscscccccsccscs" />
      </g>
      <path
         sodipodi:nodetypes="ccccsssssscccccccccc"
         inkscape:connector-curvature="0"
         id="path6183-5-3-2-9-3-5-3-6-2-4-9"
         d="m 76.06942,268.67629 -7.41e-4,1e-5 c -9.02378,0 -11.27595,6.66314 -11.31299,9.70759 -5.5e-4,0.0444 0.002,0.0843 0.003,0.12792 -0.02311,0.13789 -0.03591,0.29006 -0.03591,0.45904 0,2.67957 0.75522,9.8612 10.83299,9.82966 9.1264,-0.0286 10.83471,-4.62061 10.83471,-5.18155 0,-0.56095 -0.17253,-1.17813 -1.5711,-1.17813 -1.39861,0 -1.48162,0.58386 -1.48162,1.06608 0,0.27386 -0.99496,2.19654 -7.65655,2.19654 -5.23335,0 -7.08003,-3.2772 -7.63394,-5.34795 1.7231,1.33058 4.27867,2.28015 8.02193,2.28015 6.84284,-0.30271 10.29705,-4.30088 10.29705,-6.55157 0,-2.27745 -3.45421,-7.10507 -10.29705,-7.40779 z m -0.38454,3.29942 c 4.75108,0.15556 7.15048,2.72005 7.5478,3.9399 0.12022,1.96255 -4.10781,3.5993 -7.5478,3.42148 -3.22833,-0.0939 -7.49048,-1.81091 -7.0838,-3.32868 1.16697,-2.27883 3.85529,-3.93882 7.0838,-4.0327 z"
         style="fill:#d46900;fill-opacity:1;stroke:none;stroke-width:104.75740051;stroke-miterlimit:4;stroke-dasharray:none;stroke-opacity:1" />
      <g
         id="g7976">
        <path
           style="fill:#2f5e8d;fill-opacity:0.35686275;stroke:none;stroke-width:0.0958998px;stroke-linecap:butt;stroke-linejoin:miter;stroke-opacity:1"
           d="m 118.80787,257.0949 c -10.81353,31.61851 -37.78818,31.61202 -37.78818,31.61202 0,0 32.49999,0.0626 43.17003,-31.61202 z"
           id="path5396-0-1-2"
           inkscape:connector-curvature="0"
           sodipodi:nodetypes="cccc" />
        <path
           style="fill:none;fill-opacity:0.35678394;stroke:#d46900;stroke-width:0.25099999;stroke-linecap:butt;stroke-linejoin:miter;stroke-miterlimit:4;stroke-dasharray:none;stroke-opacity:1"
           d="m 121.47188,257.21675 c -10.66179,31.56108 -40.45219,31.49016 -40.45219,31.49016 0,0 29.79047,0.071 40.54238,-31.49016 z"
           id="path5396-0-1-3-3"
           inkscape:connector-curvature="0"
           sodipodi:nodetypes="cccc" />
      </g>
    </g>
  </g>
</svg>
